<?xml version="1.0" encoding="iso-8859-1"?>
<!-- Generator: Adobe Illustrator 19.1.0, SVG Export Plug-In . SVG Version: 6.00 Build 0)  -->
<svg version="1.1" id="Capa_1" xmlns="http://www.w3.org/2000/svg" xmlns:xlink="http://www.w3.org/1999/xlink" x="0px" y="0px"
	 viewBox="0 0 64.5 64.5" style="enable-background:new 0 0 64.5 64.5;" xml:space="preserve">
<g>
	<g id="group-11svg">
		<path id="path-1_1_" style="fill:#EDC951;" d="M64.5,34.853c0,16.371-13.274,29.643-29.647,29.643S5.205,51.224,5.205,34.853
			c0-16.372,13.275-29.644,29.648-29.644S64.5,18.481,64.5,34.853z"/>
		<path id="path-2_1_" d="M44.951,25.789c0,1.975-1.601,3.576-3.577,3.576c-1.975,0-3.576-1.601-3.576-3.576
			s1.601-3.576,3.576-3.576C43.35,22.213,44.951,23.814,44.951,25.789z"/>
		<path id="path-3_1_" d="M33.873,49.767h-4.968c-6.305,0-11.435-5.093-11.435-11.354c0-0.828,0.672-1.5,1.5-1.5
			c0.828,0,1.5,0.672,1.5,1.5c0,4.607,3.784,8.354,8.435,8.354h4.968c4.731,0,8.436-3.634,8.436-8.274
			c0-0.828,0.672-1.499,1.5-1.499s1.5,0.671,1.5,1.499C45.309,44.815,40.285,49.767,33.873,49.767z"/>
		<path id="path-4_1_" d="M22.878,26.77h-6c-0.828,0-1.5-0.672-1.5-1.5c0-0.829,0.672-1.5,1.5-1.5h6c0.828,0,1.5,0.671,1.5,1.5
			C24.378,26.098,23.706,26.77,22.878,26.77z"/>
		<path id="path-5_1_" d="M31.147,62.29C13.973,62.29,0,48.319,0,31.147S13.973,0.004,31.147,0.004s31.147,13.971,31.147,31.143
			S48.321,62.29,31.147,62.29z M31.147,3.004C15.626,3.004,3,15.628,3,31.147s12.626,28.144,28.147,28.144
			c15.52,0,28.147-12.625,28.147-28.144S46.667,3.004,31.147,3.004z"/>
	</g>
</g>
<g>
</g>
<g>
</g>
<g>
</g>
<g>
</g>
<g>
</g>
<g>
</g>
<g>
</g>
<g>
</g>
<g>
</g>
<g>
</g>
<g>
</g>
<g>
</g>
<g>
</g>
<g>
</g>
<g>
</g>
</svg>
